<?xml version="1.0" encoding="utf-8"?>
<!-- Generator: Adobe Illustrator 24.0.1, SVG Export Plug-In . SVG Version: 6.00 Build 0)  -->
<svg height="170" weight="410" version="1.1" id="Layer_1" xmlns="http://www.w3.org/2000/svg" xmlns:xlink="http://www.w3.org/1999/xlink" x="0px" y="0px"
	 viewBox="0 0 246 83" style="enable-background:new 0 0 246 83;" xml:space="preserve">
<style type="text/css">
	.st0{fill:#404040;}
	.st1{fill:url(#SVGID_1_);}
	.st2{fill:url(#SVGID_2_);}
	.st3{fill:url(#SVGID_3_);}
	.st4{fill:url(#SVGID_7_);}
	.st5{fill:url(#SVGID_8_);}
	.st6{fill:url(#SVGID_9_);}
	.st7{fill:url(#SVGID_10_);}
	.st8{fill:url(#SVGID_11_);}
	.st9{clip-path:url(#SVGID_12_);fill:url(#SVGID_13_);}
	.st10{clip-path:url(#SVGID_14_);fill:url(#SVGID_15_);}
	.st11{filter:url(#Adobe_OpacityMaskFilter);}
	.st12{fill:url(#SVGID_17_);}
	.st13{mask:url(#SVGID_16_);fill-rule:evenodd;clip-rule:evenodd;fill:url(#SVGID_18_);}
	.st14{filter:url(#Adobe_OpacityMaskFilter_1_);}
	.st15{fill:url(#SVGID_20_);}
	.st16{mask:url(#SVGID_19_);fill-rule:evenodd;clip-rule:evenodd;fill:url(#SVGID_21_);}
	.st17{filter:url(#Adobe_OpacityMaskFilter_2_);}
	.st18{fill:url(#SVGID_23_);}
	.st19{mask:url(#SVGID_22_);fill-rule:evenodd;clip-rule:evenodd;fill:#21542A;}
	.st20{filter:url(#Adobe_OpacityMaskFilter_3_);}
	.st21{fill:url(#SVGID_25_);}
	.st22{mask:url(#SVGID_24_);fill-rule:evenodd;clip-rule:evenodd;fill:url(#SVGID_26_);}
	.st23{filter:url(#Adobe_OpacityMaskFilter_4_);}
	.st24{fill:url(#SVGID_28_);}
	.st25{mask:url(#SVGID_27_);fill-rule:evenodd;clip-rule:evenodd;fill:url(#SVGID_29_);}
	.st26{fill-rule:evenodd;clip-rule:evenodd;fill:#21542A;}
	.st27{clip-path:url(#SVGID_30_);fill:url(#SVGID_31_);}
	.st28{filter:url(#Adobe_OpacityMaskFilter_5_);}
	.st29{fill:url(#SVGID_33_);}
	.st30{mask:url(#SVGID_32_);fill-rule:evenodd;clip-rule:evenodd;fill:url(#SVGID_34_);}
	.st31{filter:url(#Adobe_OpacityMaskFilter_6_);}
	.st32{fill:url(#SVGID_36_);}
	.st33{mask:url(#SVGID_35_);fill-rule:evenodd;clip-rule:evenodd;fill:url(#SVGID_37_);}
	.st34{filter:url(#Adobe_OpacityMaskFilter_7_);}
	.st35{fill:url(#SVGID_39_);}
	.st36{mask:url(#SVGID_38_);fill-rule:evenodd;clip-rule:evenodd;fill:url(#SVGID_40_);}
	.st37{fill-rule:evenodd;clip-rule:evenodd;fill:url(#SVGID_41_);}
	.st38{filter:url(#Adobe_OpacityMaskFilter_8_);}
	.st39{fill:url(#SVGID_43_);}
	.st40{mask:url(#SVGID_42_);fill-rule:evenodd;clip-rule:evenodd;fill:url(#SVGID_44_);}
	.st41{filter:url(#Adobe_OpacityMaskFilter_9_);}
	.st42{fill:url(#SVGID_46_);}
	.st43{mask:url(#SVGID_45_);fill-rule:evenodd;clip-rule:evenodd;fill:url(#SVGID_47_);}
	.st44{filter:url(#Adobe_OpacityMaskFilter_10_);}
	.st45{fill:url(#SVGID_49_);}
	.st46{mask:url(#SVGID_48_);fill-rule:evenodd;clip-rule:evenodd;fill:url(#SVGID_50_);}
	.st47{filter:url(#Adobe_OpacityMaskFilter_11_);}
	.st48{fill:url(#SVGID_52_);}
	.st49{mask:url(#SVGID_51_);fill-rule:evenodd;clip-rule:evenodd;fill:#F6F5BD;}
</style>
<g>
	<g>
		<g>
			<g>
				<path class="st0" d="M55.9,57.2c-0.8-0.3-1.4-0.8-1.9-1.4s-0.7-1.4-0.7-2.2h3c0,0.6,0.2,1,0.6,1.4s0.9,0.5,1.5,0.5
					c0.7,0,1.2-0.2,1.5-0.5c0.4-0.3,0.6-0.7,0.6-1.2c0-0.4-0.1-0.8-0.4-1c-0.3-0.3-0.6-0.5-1-0.6s-0.9-0.3-1.6-0.5
					c-0.9-0.3-1.7-0.5-2.2-0.8c-0.6-0.3-1.1-0.7-1.5-1.2c-0.4-0.5-0.6-1.2-0.6-2.1c0-0.8,0.2-1.6,0.6-2.2c0.4-0.6,1-1.1,1.7-1.4
					c0.8-0.3,1.6-0.5,2.6-0.5c1.4,0,2.6,0.4,3.5,1.1c0.9,0.7,1.4,1.7,1.5,2.9h-3.1c0-0.5-0.2-0.9-0.6-1.2s-0.9-0.5-1.5-0.5
					c-0.5,0-1,0.1-1.3,0.4c-0.3,0.3-0.5,0.7-0.5,1.2c0,0.4,0.1,0.7,0.4,0.9c0.2,0.2,0.6,0.4,0.9,0.6s0.9,0.3,1.6,0.5
					c0.9,0.3,1.7,0.5,2.2,0.8c0.6,0.3,1.1,0.7,1.5,1.2s0.6,1.2,0.6,2.1c0,0.8-0.2,1.4-0.6,2.1c-0.4,0.6-1,1.2-1.7,1.5
					c-0.8,0.4-1.6,0.6-2.7,0.6C57.5,57.7,56.7,57.5,55.9,57.2z"/>
				<path class="st0" d="M84.6,54.8H79L78,57.5h-3l5-14h3.3l5,14h-3L84.6,54.8z M83.8,52.6l-2-5.9l-2,5.9H83.8z"/>
				<path class="st0" d="M110.1,49.9c-0.4,0.7-0.9,1.2-1.7,1.6s-1.7,0.6-2.9,0.6h-2.4v5.4h-2.8v-14h5.2c1.1,0,2,0.2,2.8,0.6
					s1.3,0.9,1.7,1.5c0.4,0.7,0.6,1.4,0.6,2.2C110.6,48.6,110.4,49.3,110.1,49.9z M107.2,49.3c0.4-0.4,0.6-0.9,0.6-1.5
					c0-1.4-0.8-2-2.3-2h-2.2v4.1h2.2C106.2,49.9,106.8,49.7,107.2,49.3z"/>
				<path class="st0" d="M132.3,49.9c-0.4,0.7-0.9,1.2-1.7,1.6s-1.7,0.6-2.9,0.6h-2.4v5.4h-2.8v-14h5.2c1.1,0,2,0.2,2.8,0.6
					s1.3,0.9,1.7,1.5s0.6,1.4,0.6,2.2C132.9,48.6,132.7,49.3,132.3,49.9z M129.4,49.3c0.4-0.4,0.6-0.9,0.6-1.5c0-1.4-0.8-2-2.3-2
					h-2.2v4.1h2.2C128.5,49.9,129,49.7,129.4,49.3z"/>
				<path class="st0" d="M156.6,43.5v14h-2.8v-6h-6v6h-2.8v-14h2.8v5.8h6v-5.8H156.6z"/>
				<path class="st0" d="M172.2,43.5v14h-2.8v-14H172.2z"/>
				<path class="st0" d="M192.2,57.5l-3.1-5.5h-1.3v5.5H185v-14h5.3c1.1,0,2,0.2,2.8,0.6c0.8,0.4,1.3,0.9,1.7,1.5
					c0.4,0.7,0.6,1.4,0.6,2.2c0,0.9-0.3,1.8-0.8,2.5c-0.5,0.7-1.3,1.3-2.4,1.5l3.4,5.7H192.2z M187.8,49.9h2.4
					c0.8,0,1.3-0.2,1.7-0.6c0.4-0.4,0.6-0.9,0.6-1.5c0-0.6-0.2-1.1-0.6-1.5c-0.4-0.4-0.9-0.5-1.7-0.5h-2.4V49.9z"/>
				<path class="st0" d="M215.2,57.5l-3.1-5.5h-1.3v5.5h-2.8v-14h5.3c1.1,0,2,0.2,2.8,0.6c0.8,0.4,1.3,0.9,1.7,1.5
					c0.4,0.7,0.6,1.4,0.6,2.2c0,0.9-0.3,1.8-0.8,2.5c-0.5,0.7-1.3,1.3-2.4,1.5l3.4,5.7H215.2z M210.7,49.9h2.4
					c0.8,0,1.3-0.2,1.7-0.6c0.4-0.4,0.6-0.9,0.6-1.5c0-0.6-0.2-1.1-0.6-1.5c-0.4-0.4-0.9-0.5-1.7-0.5h-2.4V49.9z"/>
				<path class="st0" d="M233.7,45.8v3.5h4.7v2.2h-4.7v3.7h5.3v2.3h-8.1v-14h8.1v2.3H233.7z"/>
			</g>
		</g>
		<g>
			<linearGradient id="SVGID_1_" gradientUnits="userSpaceOnUse" x1="53.1496" y1="23.7262" x2="72.4166" y2="23.7262">
				<stop  offset="0" style="stop-color:#01B1A4"/>
				<stop  offset="0" style="stop-color:#036249"/>
				<stop  offset="1" style="stop-color:#49B75A"/>
			</linearGradient>
			<path class="st1" d="M72.4,11.3v4.9h-6.6v20h-6.1v-20h-6.6v-4.9H72.4z"/>
			<linearGradient id="SVGID_2_" gradientUnits="userSpaceOnUse" x1="75.4679" y1="23.7262" x2="97.0413" y2="23.7262">
				<stop  offset="0" style="stop-color:#01B1A4"/>
				<stop  offset="0" style="stop-color:#036249"/>
				<stop  offset="1" style="stop-color:#49B75A"/>
			</linearGradient>
			<path class="st2" d="M97,11.3v24.9H91V25.9h-9.4v10.3h-6.1V11.3h6.1V21H91v-9.8H97z"/>
			<linearGradient id="SVGID_3_" gradientUnits="userSpaceOnUse" x1="101.4052" y1="23.7262" x2="116.6627" y2="23.7262">
				<stop  offset="0" style="stop-color:#01B1A4"/>
				<stop  offset="0" style="stop-color:#036249"/>
				<stop  offset="1" style="stop-color:#49B75A"/>
			</linearGradient>
			<path class="st3" d="M107.5,16.1v5h8.1v4.7h-8.1v5.5h9.2v4.9h-15.3V11.3h15.3v4.9H107.5z"/>
		</g>
		<g>
			<linearGradient id="SVGID_7_" gradientUnits="userSpaceOnUse" x1="125.8912" y1="23.3717" x2="150.8351" y2="23.3717">
				<stop  offset="0" style="stop-color:#01B1A4"/>
				<stop  offset="0" style="stop-color:#036249"/>
				<stop  offset="1" style="stop-color:#49B75A"/>
			</linearGradient>
			<path class="st4" d="M143.6,18.8c-0.5-0.8-1.1-1.5-2-1.9c-0.8-0.4-1.8-0.7-3-0.7c-2,0-3.6,0.7-4.8,2c-1.2,1.3-1.8,3-1.8,5.2
				c0,2.3,0.6,4.1,1.9,5.4c1.3,1.3,3,2,5.2,2c1.5,0,2.8-0.4,3.8-1.1c1-0.8,1.8-1.9,2.3-3.3h-7.8v-4.5h13.3v5.7
				c-0.5,1.5-1.2,3-2.3,4.3c-1.1,1.3-2.5,2.4-4.1,3.2c-1.7,0.8-3.6,1.2-5.7,1.2c-2.5,0-4.7-0.5-6.6-1.6c-1.9-1.1-3.5-2.6-4.6-4.5
				c-1.1-1.9-1.6-4.1-1.6-6.6c0-2.5,0.5-4.7,1.6-6.6c1.1-1.9,2.6-3.5,4.5-4.6c1.9-1.1,4.1-1.6,6.6-1.6c3,0,5.5,0.7,7.6,2.2
				c2.1,1.5,3.4,3.5,4.1,6.1H143.6z"/>
			<linearGradient id="SVGID_8_" gradientUnits="userSpaceOnUse" x1="154.2394" y1="23.4255" x2="173.987" y2="23.4255">
				<stop  offset="0" style="stop-color:#01B1A4"/>
				<stop  offset="0" style="stop-color:#036249"/>
				<stop  offset="1" style="stop-color:#49B75A"/>
			</linearGradient>
			<path class="st5" d="M167.1,36l-5.2-9.5h-1.5V36h-6.1V10.8h10.3c2,0,3.7,0.3,5.1,1c1.4,0.7,2.4,1.6,3.1,2.8c0.7,1.2,1,2.6,1,4
				c0,1.7-0.5,3.2-1.4,4.5c-0.9,1.3-2.3,2.2-4.2,2.8l5.8,10H167.1z M160.4,22.2h3.8c1.1,0,2-0.3,2.5-0.8c0.6-0.5,0.8-1.3,0.8-2.3
				c0-1-0.3-1.7-0.8-2.3c-0.6-0.5-1.4-0.8-2.5-0.8h-3.8V22.2z"/>
			<linearGradient id="SVGID_9_" gradientUnits="userSpaceOnUse" x1="177.6064" y1="23.4255" x2="193.0173" y2="23.4255">
				<stop  offset="0" style="stop-color:#01B1A4"/>
				<stop  offset="0" style="stop-color:#036249"/>
				<stop  offset="1" style="stop-color:#49B75A"/>
			</linearGradient>
			<path class="st6" d="M183.7,15.8v5.1h8.2v4.7h-8.2v5.5h9.3V36h-15.4V10.8H193v4.9H183.7z"/>
			<linearGradient id="SVGID_10_" gradientUnits="userSpaceOnUse" x1="196.9949" y1="23.4255" x2="212.4058" y2="23.4255">
				<stop  offset="0" style="stop-color:#01B1A4"/>
				<stop  offset="0" style="stop-color:#036249"/>
				<stop  offset="1" style="stop-color:#49B75A"/>
			</linearGradient>
			<path class="st7" d="M203.1,15.8v5.1h8.2v4.7h-8.2v5.5h9.3V36H197V10.8h15.4v4.9H203.1z"/>
			<linearGradient id="SVGID_11_" gradientUnits="userSpaceOnUse" x1="216.3832" y1="23.4255" x2="238.8902" y2="23.4255">
				<stop  offset="0" style="stop-color:#01B1A4"/>
				<stop  offset="0" style="stop-color:#036249"/>
				<stop  offset="1" style="stop-color:#49B75A"/>
			</linearGradient>
			<path class="st8" d="M238.9,36h-6.1l-10.2-15.5V36h-6.1V10.8h6.1l10.2,15.6V10.8h6.1V36z"/>
		</g>
		<g>
			<g>
				<defs>
					<polygon id="SVGID_6_" points="11.6,20.8 24.2,70.1 34.2,6.7 					"/>
				</defs>
				<clipPath id="SVGID_12_">
					<use xlink:href="#SVGID_6_"  style="overflow:visible;"/>
				</clipPath>
				<linearGradient id="SVGID_13_" gradientUnits="userSpaceOnUse" x1="12.7226" y1="12.3023" x2="31.6366" y2="60.7626">
					<stop  offset="0" style="stop-color:#01B1A4"/>
					<stop  offset="0" style="stop-color:#036249"/>
					<stop  offset="1" style="stop-color:#49B75A"/>
				</linearGradient>
				<rect x="11.6" y="6.7" class="st9" width="22.6" height="63.4"/>
			</g>
			<g>
				<defs>
					<polygon id="SVGID_5_" points="36,10.9 26.6,61.3 43.3,30.9 					"/>
				</defs>
				<clipPath id="SVGID_14_">
					<use xlink:href="#SVGID_5_"  style="overflow:visible;"/>
				</clipPath>
				<linearGradient id="SVGID_15_" gradientUnits="userSpaceOnUse" x1="34.2997" y1="0.907" x2="35.4857" y2="65.3087">
					<stop  offset="0" style="stop-color:#01B1A4"/>
					<stop  offset="0" style="stop-color:#036249"/>
					<stop  offset="1" style="stop-color:#49B75A"/>
				</linearGradient>
				<rect x="26.6" y="10.9" class="st10" width="16.8" height="50.3"/>
			</g>
			<defs>
				<filter id="Adobe_OpacityMaskFilter" filterUnits="userSpaceOnUse" x="26.6" y="30.9" width="16.8" height="30.3">
					<feColorMatrix  type="matrix" values="1 0 0 0 0  0 1 0 0 0  0 0 1 0 0  0 0 0 1 0"/>
				</filter>
			</defs>
			<mask maskUnits="userSpaceOnUse" x="26.6" y="30.9" width="16.8" height="30.3" id="SVGID_16_">
				<g class="st11">

						<linearGradient id="SVGID_17_" gradientUnits="userSpaceOnUse" x1="1845.2629" y1="3162.8572" x2="1829.8099" y2="3145.3572" gradientTransform="matrix(1 0 0 1 -1805.7021 -3111.5259)">
						<stop  offset="0" style="stop-color:#FFFFFF"/>
						<stop  offset="1" style="stop-color:#000000"/>
					</linearGradient>
					<rect x="26.6" y="30.9" class="st12" width="16.8" height="30.3"/>
				</g>
			</mask>
			<linearGradient id="SVGID_18_" gradientUnits="userSpaceOnUse" x1="26.5616" y1="46.1073" x2="43.3343" y2="46.1073">
				<stop  offset="0" style="stop-color:#01B1A4"/>
				<stop  offset="0" style="stop-color:#036249"/>
				<stop  offset="1" style="stop-color:#49B75A"/>
			</linearGradient>
			<polygon class="st13" points="26.6,61.3 37.8,32 43.3,30.9 			"/>
			<defs>
				<filter id="Adobe_OpacityMaskFilter_1_" filterUnits="userSpaceOnUse" x="26.6" y="36.4" width="9.9" height="24.9">
					<feColorMatrix  type="matrix" values="1 0 0 0 0  0 1 0 0 0  0 0 1 0 0  0 0 0 1 0"/>
				</filter>
			</defs>
			<mask maskUnits="userSpaceOnUse" x="26.6" y="36.4" width="9.9" height="24.9" id="SVGID_19_">
				<g class="st14">

						<linearGradient id="SVGID_20_" gradientUnits="userSpaceOnUse" x1="1844.1077" y1="3168.7197" x2="1828.7024" y2="3150.0442" gradientTransform="matrix(1 0 0 1 -1805.7021 -3111.5259)">
						<stop  offset="0" style="stop-color:#FFFFFF"/>
						<stop  offset="1" style="stop-color:#000000"/>
					</linearGradient>
					<rect x="26.6" y="36.4" class="st15" width="9.9" height="24.9"/>
				</g>
			</mask>
			<linearGradient id="SVGID_21_" gradientUnits="userSpaceOnUse" x1="26.5616" y1="48.8166" x2="36.429" y2="48.8166">
				<stop  offset="0" style="stop-color:#01B1A4"/>
				<stop  offset="0" style="stop-color:#036249"/>
				<stop  offset="1" style="stop-color:#49B75A"/>
			</linearGradient>
			<polygon class="st16" points="26.6,61.3 36.4,36.4 35.4,45.4 			"/>
			<defs>
				<filter id="Adobe_OpacityMaskFilter_2_" filterUnits="userSpaceOnUse" x="26.6" y="10.9" width="11.2" height="50.3">
					<feColorMatrix  type="matrix" values="1 0 0 0 0  0 1 0 0 0  0 0 1 0 0  0 0 0 1 0"/>
				</filter>
			</defs>
			<mask maskUnits="userSpaceOnUse" x="26.6" y="10.9" width="11.2" height="50.3" id="SVGID_22_">
				<g class="st17">

						<linearGradient id="SVGID_23_" gradientUnits="userSpaceOnUse" x1="1827.8912" y1="3134.7339" x2="1845.2439" y2="3157.1631" gradientTransform="matrix(1 0 0 1 -1805.7021 -3111.5259)">
						<stop  offset="0" style="stop-color:#FFFFFF"/>
						<stop  offset="1" style="stop-color:#000000"/>
					</linearGradient>
					<rect x="26.6" y="10.9" class="st18" width="11.2" height="50.3"/>
				</g>
			</mask>
			<polygon class="st19" points="36,10.9 37.8,32 26.6,61.3 			"/>
			<defs>
				<filter id="Adobe_OpacityMaskFilter_3_" filterUnits="userSpaceOnUse" x="24.2" y="6.7" width="10" height="63.4">
					<feColorMatrix  type="matrix" values="1 0 0 0 0  0 1 0 0 0  0 0 1 0 0  0 0 0 1 0"/>
				</filter>
			</defs>
			<mask maskUnits="userSpaceOnUse" x="24.2" y="6.7" width="10" height="63.4" id="SVGID_24_">
				<g class="st20">

						<linearGradient id="SVGID_25_" gradientUnits="userSpaceOnUse" x1="1827.9717" y1="3095.0823" x2="1863.4532" y2="3123.384" gradientTransform="matrix(1 0 0 1 -1816.5444 -3070.8701)">
						<stop  offset="0" style="stop-color:#FFFFFF"/>
						<stop  offset="1" style="stop-color:#000000"/>
					</linearGradient>
					<rect x="24.2" y="6.7" class="st21" width="10" height="63.4"/>
				</g>
			</mask>
			<linearGradient id="SVGID_26_" gradientUnits="userSpaceOnUse" x1="24.2104" y1="38.3943" x2="34.2039" y2="38.3943">
				<stop  offset="0" style="stop-color:#01B1A4"/>
				<stop  offset="0" style="stop-color:#036249"/>
				<stop  offset="1" style="stop-color:#49B75A"/>
			</linearGradient>
			<polygon class="st22" points="34.2,6.7 24.2,23.9 24.2,70.1 			"/>
			<defs>
				<filter id="Adobe_OpacityMaskFilter_4_" filterUnits="userSpaceOnUse" x="11.6" y="6.7" width="22.6" height="16.7">
					<feColorMatrix  type="matrix" values="1 0 0 0 0  0 1 0 0 0  0 0 1 0 0  0 0 0 1 0"/>
				</filter>
			</defs>
			<mask maskUnits="userSpaceOnUse" x="11.6" y="6.7" width="22.6" height="16.7" id="SVGID_27_">
				<g class="st23">

						<linearGradient id="SVGID_28_" gradientUnits="userSpaceOnUse" x1="1896.2765" y1="3297.1682" x2="1902.3895" y2="3316.7847" gradientTransform="matrix(1 0 0 1 -1874.6558 -3286.2527)">
						<stop  offset="0" style="stop-color:#FFFFFF"/>
						<stop  offset="1" style="stop-color:#000000"/>
					</linearGradient>
					<rect x="11.6" y="6.7" class="st24" width="22.6" height="16.7"/>
				</g>
			</mask>
			<linearGradient id="SVGID_29_" gradientUnits="userSpaceOnUse" x1="11.6087" y1="15.041" x2="34.2039" y2="15.041">
				<stop  offset="0" style="stop-color:#01B1A4"/>
				<stop  offset="0" style="stop-color:#036249"/>
				<stop  offset="1" style="stop-color:#49B75A"/>
			</linearGradient>
			<polygon class="st25" points="11.6,20.8 23.3,23.4 34.2,6.7 			"/>
			<polygon class="st26" points="26.6,61.3 38.1,32.1 43.3,31 38.1,31.7 36,10.9 37.3,31.9 			"/>
			<g>
				<defs>
					<polygon id="SVGID_4_" points="19.1,53.9 11.6,27.7 3.8,34.7 					"/>
				</defs>
				<clipPath id="SVGID_30_">
					<use xlink:href="#SVGID_4_"  style="overflow:visible;"/>
				</clipPath>
				<linearGradient id="SVGID_31_" gradientUnits="userSpaceOnUse" x1="11.4218" y1="20.9991" x2="11.4218" y2="61.411">
					<stop  offset="0" style="stop-color:#036249"/>
					<stop  offset="1" style="stop-color:#49B75A"/>
				</linearGradient>
				<rect x="3.8" y="27.7" class="st27" width="15.3" height="26.2"/>
			</g>
			<defs>
				<filter id="Adobe_OpacityMaskFilter_5_" filterUnits="userSpaceOnUse" x="10.2" y="27.7" width="8.8" height="26.2">
					<feColorMatrix  type="matrix" values="1 0 0 0 0  0 1 0 0 0  0 0 1 0 0  0 0 0 1 0"/>
				</filter>
			</defs>
			<mask maskUnits="userSpaceOnUse" x="10.2" y="27.7" width="8.8" height="26.2" id="SVGID_32_">
				<g class="st28">

						<linearGradient id="SVGID_33_" gradientUnits="userSpaceOnUse" x1="1922.5367" y1="3186.842" x2="1876.991" y2="3185.9573" gradientTransform="matrix(1 0 0 1 -1880.9589 -3145.5281)">
						<stop  offset="0" style="stop-color:#FFFFFF"/>
						<stop  offset="1" style="stop-color:#000000"/>
					</linearGradient>
					<rect x="10.2" y="27.7" class="st29" width="8.8" height="26.2"/>
				</g>
			</mask>
			<linearGradient id="SVGID_34_" gradientUnits="userSpaceOnUse" x1="7.1754" y1="21.8929" x2="19.2136" y2="53.2635">
				<stop  offset="0" style="stop-color:#01B1A4"/>
				<stop  offset="0" style="stop-color:#036249"/>
				<stop  offset="1" style="stop-color:#49B75A"/>
			</linearGradient>
			<polygon class="st30" points="10.8,31.1 11.6,27.7 19.1,53.9 10.2,35.6 			"/>
			<defs>
				<filter id="Adobe_OpacityMaskFilter_6_" filterUnits="userSpaceOnUse" x="3.8" y="27.7" width="7.8" height="7.8">
					<feColorMatrix  type="matrix" values="1 0 0 0 0  0 1 0 0 0  0 0 1 0 0  0 0 0 1 0"/>
				</filter>
			</defs>
			<mask maskUnits="userSpaceOnUse" x="3.8" y="27.7" width="7.8" height="7.8" id="SVGID_35_">
				<g class="st31">

						<linearGradient id="SVGID_36_" gradientUnits="userSpaceOnUse" x1="1916.5946" y1="3255.8967" x2="1922.4106" y2="3274.3706" gradientTransform="matrix(1 0 0 1 -1910.8276 -3230.3889)">
						<stop  offset="0" style="stop-color:#FFFFFF"/>
						<stop  offset="1" style="stop-color:#000000"/>
					</linearGradient>
					<rect x="3.8" y="27.7" class="st32" width="7.8" height="7.8"/>
				</g>
			</mask>
			<linearGradient id="SVGID_37_" gradientUnits="userSpaceOnUse" x1="3.7647" y1="31.5899" x2="11.5989" y2="31.5899">
				<stop  offset="0" style="stop-color:#01B1A4"/>
				<stop  offset="0" style="stop-color:#036249"/>
				<stop  offset="1" style="stop-color:#49B75A"/>
			</linearGradient>
			<polygon class="st33" points="3.8,34.7 5.7,35 9.7,35.5 10.8,31.1 11.6,27.7 			"/>
			<defs>
				<filter id="Adobe_OpacityMaskFilter_7_" filterUnits="userSpaceOnUse" x="7.3" y="27.7" width="4.3" height="7.8">
					<feColorMatrix  type="matrix" values="1 0 0 0 0  0 1 0 0 0  0 0 1 0 0  0 0 0 1 0"/>
				</filter>
			</defs>
			<mask maskUnits="userSpaceOnUse" x="7.3" y="27.7" width="4.3" height="7.8" id="SVGID_38_">
				<g class="st34">

						<linearGradient id="SVGID_39_" gradientUnits="userSpaceOnUse" x1="1902.3174" y1="3255.282" x2="1906.7152" y2="3273.0769" gradientTransform="matrix(1 0 0 1 -1894.5229 -3230.3892)">
						<stop  offset="0" style="stop-color:#FFFFFF"/>
						<stop  offset="1" style="stop-color:#000000"/>
					</linearGradient>
					<rect x="7.3" y="27.7" class="st35" width="4.3" height="7.8"/>
				</g>
			</mask>
			<linearGradient id="SVGID_40_" gradientUnits="userSpaceOnUse" x1="7.3004" y1="31.5899" x2="11.5989" y2="31.5899">
				<stop  offset="0" style="stop-color:#01B1A4"/>
				<stop  offset="0" style="stop-color:#036249"/>
				<stop  offset="1" style="stop-color:#49B75A"/>
			</linearGradient>
			<polygon class="st36" points="7.3,31.5 9.7,35.5 10.8,31.1 11.6,27.7 			"/>
			<linearGradient id="SVGID_41_" gradientUnits="userSpaceOnUse" x1="5.6862" y1="41.4754" x2="19.0787" y2="41.4754">
				<stop  offset="0" style="stop-color:#01B1A4"/>
				<stop  offset="0" style="stop-color:#036249"/>
				<stop  offset="1" style="stop-color:#49B75A"/>
			</linearGradient>
			<polygon class="st37" points="19.1,53.9 10.2,35.6 11.3,29.1 9.7,35.5 5.7,35 9.6,35.8 			"/>
			<defs>
				<filter id="Adobe_OpacityMaskFilter_8_" filterUnits="userSpaceOnUse" x="12.7" y="6.7" width="21.6" height="63.4">
					<feColorMatrix  type="matrix" values="1 0 0 0 0  0 1 0 0 0  0 0 1 0 0  0 0 0 1 0"/>
				</filter>
			</defs>
			<mask maskUnits="userSpaceOnUse" x="12.7" y="6.7" width="21.6" height="63.4" id="SVGID_42_">
				<g class="st38">

						<linearGradient id="SVGID_43_" gradientUnits="userSpaceOnUse" x1="1896.8745" y1="3115.1912" x2="1881.6882" y2="3090.2031" gradientTransform="matrix(1 0 0 1 -1869.8451 -3070.8708)">
						<stop  offset="0" style="stop-color:#FFFFFF"/>
						<stop  offset="1" style="stop-color:#000000"/>
					</linearGradient>
					<rect x="12.7" y="6.7" class="st39" width="21.6" height="63.4"/>
				</g>
			</mask>
			<linearGradient id="SVGID_44_" gradientUnits="userSpaceOnUse" x1="12.6519" y1="38.3942" x2="34.2039" y2="38.3942">
				<stop  offset="0" style="stop-color:#01B1A4"/>
				<stop  offset="0" style="stop-color:#036249"/>
				<stop  offset="1" style="stop-color:#49B75A"/>
			</linearGradient>
			<polygon class="st40" points="24.2,70.1 24.2,23.9 34.2,6.7 23.3,23.4 12.7,21.1 23,24.3 			"/>
			<defs>
				<filter id="Adobe_OpacityMaskFilter_9_" filterUnits="userSpaceOnUse" x="20.2" y="6.7" width="14" height="16.7">
					<feColorMatrix  type="matrix" values="1 0 0 0 0  0 1 0 0 0  0 0 1 0 0  0 0 0 1 0"/>
				</filter>
			</defs>
			<mask maskUnits="userSpaceOnUse" x="20.2" y="6.7" width="14" height="16.7" id="SVGID_45_">
				<g class="st41">

						<linearGradient id="SVGID_46_" gradientUnits="userSpaceOnUse" x1="1866.132" y1="3286.4324" x2="1855.5732" y2="3325.8328" gradientTransform="matrix(1 0 0 1 -1834.9364 -3286.2527)">
						<stop  offset="0" style="stop-color:#FFFFFF"/>
						<stop  offset="1" style="stop-color:#000000"/>
					</linearGradient>
					<rect x="20.2" y="6.7" class="st42" width="14" height="16.7"/>
				</g>
			</mask>
			<linearGradient id="SVGID_47_" gradientUnits="userSpaceOnUse" x1="20.222" y1="15.041" x2="34.2039" y2="15.041">
				<stop  offset="0" style="stop-color:#01B1A4"/>
				<stop  offset="0" style="stop-color:#036249"/>
				<stop  offset="1" style="stop-color:#49B75A"/>
			</linearGradient>
			<polygon class="st43" points="20.2,15.4 23.3,23.4 34.2,6.7 			"/>
			<defs>
				<filter id="Adobe_OpacityMaskFilter_10_" filterUnits="userSpaceOnUse" x="38.1" y="23.2" width="5.3" height="8.5">
					<feColorMatrix  type="matrix" values="1 0 0 0 0  0 1 0 0 0  0 0 1 0 0  0 0 0 1 0"/>
				</filter>
			</defs>
			<mask maskUnits="userSpaceOnUse" x="38.1" y="23.2" width="5.3" height="8.5" id="SVGID_48_">
				<g class="st44">

						<linearGradient id="SVGID_49_" gradientUnits="userSpaceOnUse" x1="1813.4147" y1="3280.7854" x2="1784.0504" y2="3272.918" gradientTransform="matrix(1 0 0 1 -1752.6696 -3247.9985)">
						<stop  offset="0" style="stop-color:#FFFFFF"/>
						<stop  offset="1" style="stop-color:#000000"/>
					</linearGradient>
					<rect x="38.1" y="23.2" class="st45" width="5.3" height="8.5"/>
				</g>
			</mask>
			<linearGradient id="SVGID_50_" gradientUnits="userSpaceOnUse" x1="38.0619" y1="27.4159" x2="43.3342" y2="27.4159">
				<stop  offset="0" style="stop-color:#01B1A4"/>
				<stop  offset="0" style="stop-color:#036249"/>
				<stop  offset="1" style="stop-color:#49B75A"/>
			</linearGradient>
			<polygon class="st46" points="38.1,31.7 40.5,23.2 43.3,30.9 			"/>
			<defs>
				<filter id="Adobe_OpacityMaskFilter_11_" filterUnits="userSpaceOnUse" x="14.3" y="31.5" width="9.9" height="38.6">
					<feColorMatrix  type="matrix" values="1 0 0 0 0  0 1 0 0 0  0 0 1 0 0  0 0 0 1 0"/>
				</filter>
			</defs>
			<mask maskUnits="userSpaceOnUse" x="14.3" y="31.5" width="9.9" height="38.6" id="SVGID_51_">
				<g class="st47">

						<linearGradient id="SVGID_52_" gradientUnits="userSpaceOnUse" x1="1856.1409" y1="3157.5659" x2="1896.1156" y2="3100.5769" gradientTransform="matrix(1 0 0 1 -1862.0573 -3070.8708)">
						<stop  offset="0" style="stop-color:#FFFFFF"/>
						<stop  offset="1" style="stop-color:#000000"/>
					</linearGradient>
					<rect x="14.3" y="31.5" class="st48" width="9.9" height="38.6"/>
				</g>
			</mask>
			<polygon class="st49" points="24.2,70.1 23.5,44.2 14.3,31.5 			"/>
		</g>
	</g>
	<g>
		<g>
			<path class="st0" d="M110.9,73.7l-2.3-2.6v2.6h-0.7V68h0.7v2.6l2.3-2.6h0.9l-2.6,2.8l2.6,2.8H110.9z"/>
			<path class="st0" d="M119.9,68v5.7h-0.7v-2.6h-2.9v2.6h-0.7V68h0.7v2.5h2.9V68H119.9z"/>
			<path class="st0" d="M127.4,72.4h-2.5l-0.5,1.3h-0.8l2.1-5.6h0.9l2,5.6h-0.8L127.4,72.4z M127.2,71.8l-1-2.9l-1,2.9H127.2z"/>
			<path class="st0" d="M135.8,68.3c0.5,0.2,0.8,0.6,1,1c0.2,0.4,0.4,0.9,0.4,1.5c0,0.6-0.1,1.1-0.4,1.5c-0.2,0.4-0.6,0.8-1,1
				s-1,0.3-1.6,0.3h-1.8V68h1.8C134.8,68,135.3,68.1,135.8,68.3z M135.8,72.5c0.4-0.4,0.6-0.9,0.6-1.6c0-0.7-0.2-1.3-0.6-1.7
				c-0.4-0.4-0.9-0.6-1.7-0.6h-1v4.5h1C134.9,73.1,135.5,72.9,135.8,72.5z"/>
			<path class="st0" d="M144.4,72.4h-2.5l-0.5,1.3h-0.8l2.1-5.6h0.9l2,5.6h-0.8L144.4,72.4z M144.1,71.8l-1-2.9l-1,2.9H144.1z"/>
			<path class="st0" d="M152.4,73.7l-2.3-2.6v2.6h-0.7V68h0.7v2.6l2.3-2.6h0.9l-2.6,2.8l2.6,2.8H152.4z"/>
			<path class="st0" d="M160.4,70.8c-0.3,0.3-0.8,0.5-1.5,0.5h-1.1v2.4h-0.7V68h1.8c0.6,0,1.1,0.2,1.5,0.5s0.5,0.7,0.5,1.2
				C160.9,70.1,160.7,70.5,160.4,70.8z M159.8,70.4c0.2-0.2,0.3-0.4,0.3-0.8c0-0.7-0.4-1.1-1.2-1.1h-1.1v2.1h1.1
				C159.3,70.7,159.6,70.6,159.8,70.4z"/>
			<path class="st0" d="M168,72.4h-2.5l-0.5,1.3h-0.8l2.1-5.6h0.9l2,5.6h-0.8L168,72.4z M167.8,71.8l-1-2.9l-1,2.9H167.8z"/>
			<path class="st0" d="M176.4,68.3c0.5,0.2,0.8,0.6,1,1c0.2,0.4,0.4,0.9,0.4,1.5c0,0.6-0.1,1.1-0.4,1.5c-0.2,0.4-0.6,0.8-1,1
				s-1,0.3-1.6,0.3H173V68h1.8C175.4,68,175.9,68.1,176.4,68.3z M176.4,72.5c0.4-0.4,0.6-0.9,0.6-1.6c0-0.7-0.2-1.3-0.6-1.7
				c-0.4-0.4-0.9-0.6-1.7-0.6h-1v4.5h1C175.5,73.1,176.1,72.9,176.4,72.5z"/>
			<path class="st0" d="M185,72.4h-2.5l-0.5,1.3h-0.8l2.1-5.6h0.9l2,5.6h-0.8L185,72.4z M184.8,71.8l-1-2.9l-1,2.9H184.8z"/>
			<path class="st0" d="M198.3,72.4h-2.5l-0.5,1.3h-0.8l2.1-5.6h0.9l2,5.6h-0.8L198.3,72.4z M198.1,71.8l-1-2.9l-1,2.9H198.1z"/>
			<path class="st0" d="M207.8,73.7H207l-3-4.5v4.5h-0.7V68h0.7l3,4.5V68h0.7V73.7z"/>
			<path class="st0" d="M216.4,73.7h-0.7l-3-4.5v4.5h-0.7V68h0.7l3,4.5V68h0.7V73.7z"/>
			<path class="st0" d="M221.2,68.6v1.9h2.1v0.6h-2.1v2h2.3v0.6h-3.1V68h3.1v0.6H221.2z"/>
			<path class="st0" d="M229.8,70.8l1.7,2.8h-0.8l-1.4-2.2l-1.3,2.2h-0.8l1.7-2.8l-1.7-2.8h0.8l1.4,2.2l1.3-2.2h0.8L229.8,70.8z"/>
			<path class="st0" d="M236.2,68.6v1.9h2.1v0.6h-2.1v2h2.3v0.6h-3.1V68h3.1v0.6H236.2z"/>
		</g>
	</g>
</g>
</svg>
